<mxfile host="app.diagrams.net" modified="2023-11-19T22:33:33.817Z" agent="Mozilla/5.0 (Windows NT 10.0; Win64; x64) AppleWebKit/537.36 (KHTML, like Gecko) Chrome/119.0.0.0 Safari/537.36" etag="dB4jUNjeKxNUsQSQ6ISV" version="22.1.3" type="device" pages="2">
  <diagram name="Page-1" id="ySVKeIgcLC7RWXLVLWug">
    <mxGraphModel dx="1518" dy="628" grid="0" gridSize="10" guides="1" tooltips="1" connect="1" arrows="1" fold="1" page="1" pageScale="1" pageWidth="1200" pageHeight="1920" math="0" shadow="0">
      <root>
        <mxCell id="0" />
        <mxCell id="1" parent="0" />
        <mxCell id="ao8X_oTIbGiWLXNSHfPo-18" style="edgeStyle=orthogonalEdgeStyle;rounded=0;orthogonalLoop=1;jettySize=auto;html=1;exitX=1;exitY=0.25;exitDx=0;exitDy=0;" edge="1" parent="1" source="ao8X_oTIbGiWLXNSHfPo-1">
          <mxGeometry relative="1" as="geometry">
            <mxPoint x="590" y="345" as="targetPoint" />
          </mxGeometry>
        </mxCell>
        <mxCell id="ao8X_oTIbGiWLXNSHfPo-19" value="Enable" style="edgeLabel;html=1;align=center;verticalAlign=middle;resizable=0;points=[];" vertex="1" connectable="0" parent="ao8X_oTIbGiWLXNSHfPo-18">
          <mxGeometry x="-0.1045" relative="1" as="geometry">
            <mxPoint x="-3" y="2" as="offset" />
          </mxGeometry>
        </mxCell>
        <mxCell id="ao8X_oTIbGiWLXNSHfPo-23" style="edgeStyle=orthogonalEdgeStyle;rounded=0;orthogonalLoop=1;jettySize=auto;html=1;entryX=0;entryY=0.5;entryDx=0;entryDy=0;" edge="1" parent="1" source="ao8X_oTIbGiWLXNSHfPo-1" target="ao8X_oTIbGiWLXNSHfPo-14">
          <mxGeometry relative="1" as="geometry" />
        </mxCell>
        <mxCell id="ao8X_oTIbGiWLXNSHfPo-24" value="PWM" style="edgeLabel;html=1;align=center;verticalAlign=middle;resizable=0;points=[];" vertex="1" connectable="0" parent="ao8X_oTIbGiWLXNSHfPo-23">
          <mxGeometry x="-0.32" y="-1" relative="1" as="geometry">
            <mxPoint x="4" y="1" as="offset" />
          </mxGeometry>
        </mxCell>
        <mxCell id="ao8X_oTIbGiWLXNSHfPo-1" value="&lt;br&gt;&lt;br&gt;&lt;br&gt;&lt;br&gt;&lt;br&gt;&lt;br&gt;MSP430FR579" style="rounded=1;whiteSpace=wrap;html=1;" vertex="1" parent="1">
          <mxGeometry x="415" y="308" width="120" height="140" as="geometry" />
        </mxCell>
        <mxCell id="ao8X_oTIbGiWLXNSHfPo-8" value="" style="endArrow=classic;html=1;rounded=0;" edge="1" parent="1">
          <mxGeometry width="50" height="50" relative="1" as="geometry">
            <mxPoint x="335" y="340" as="sourcePoint" />
            <mxPoint x="415" y="340" as="targetPoint" />
          </mxGeometry>
        </mxCell>
        <mxCell id="ao8X_oTIbGiWLXNSHfPo-9" value="USB 5V" style="text;html=1;align=center;verticalAlign=middle;resizable=0;points=[];autosize=1;strokeColor=none;fillColor=none;" vertex="1" parent="1">
          <mxGeometry x="330" y="308" width="70" height="30" as="geometry" />
        </mxCell>
        <mxCell id="ao8X_oTIbGiWLXNSHfPo-16" style="edgeStyle=orthogonalEdgeStyle;rounded=0;orthogonalLoop=1;jettySize=auto;html=1;exitX=0.5;exitY=1;exitDx=0;exitDy=0;entryX=0.5;entryY=0;entryDx=0;entryDy=0;" edge="1" parent="1" source="ao8X_oTIbGiWLXNSHfPo-10" target="ao8X_oTIbGiWLXNSHfPo-14">
          <mxGeometry relative="1" as="geometry" />
        </mxCell>
        <mxCell id="ao8X_oTIbGiWLXNSHfPo-17" value="5V" style="edgeLabel;html=1;align=center;verticalAlign=middle;resizable=0;points=[];" vertex="1" connectable="0" parent="ao8X_oTIbGiWLXNSHfPo-16">
          <mxGeometry x="-0.168" y="2" relative="1" as="geometry">
            <mxPoint as="offset" />
          </mxGeometry>
        </mxCell>
        <mxCell id="ao8X_oTIbGiWLXNSHfPo-10" value="120VAC to 5V Converter" style="rounded=1;whiteSpace=wrap;html=1;" vertex="1" parent="1">
          <mxGeometry x="609" y="231" width="120" height="60" as="geometry" />
        </mxCell>
        <mxCell id="ao8X_oTIbGiWLXNSHfPo-11" value="" style="endArrow=classic;html=1;rounded=0;" edge="1" parent="1">
          <mxGeometry width="50" height="50" relative="1" as="geometry">
            <mxPoint x="668" y="159" as="sourcePoint" />
            <mxPoint x="668.41" y="231" as="targetPoint" />
          </mxGeometry>
        </mxCell>
        <mxCell id="ao8X_oTIbGiWLXNSHfPo-15" value="120VAC" style="edgeLabel;html=1;align=center;verticalAlign=middle;resizable=0;points=[];" vertex="1" connectable="0" parent="ao8X_oTIbGiWLXNSHfPo-11">
          <mxGeometry x="-0.24" relative="1" as="geometry">
            <mxPoint as="offset" />
          </mxGeometry>
        </mxCell>
        <mxCell id="ao8X_oTIbGiWLXNSHfPo-30" style="edgeStyle=orthogonalEdgeStyle;rounded=0;orthogonalLoop=1;jettySize=auto;html=1;entryX=0.5;entryY=0;entryDx=0;entryDy=0;" edge="1" parent="1" source="ao8X_oTIbGiWLXNSHfPo-14" target="ao8X_oTIbGiWLXNSHfPo-22">
          <mxGeometry relative="1" as="geometry" />
        </mxCell>
        <mxCell id="ao8X_oTIbGiWLXNSHfPo-32" value="VMOT" style="edgeLabel;html=1;align=center;verticalAlign=middle;resizable=0;points=[];" vertex="1" connectable="0" parent="ao8X_oTIbGiWLXNSHfPo-30">
          <mxGeometry x="-0.292" y="-1" relative="1" as="geometry">
            <mxPoint as="offset" />
          </mxGeometry>
        </mxCell>
        <mxCell id="ao8X_oTIbGiWLXNSHfPo-31" style="edgeStyle=orthogonalEdgeStyle;rounded=0;orthogonalLoop=1;jettySize=auto;html=1;exitX=0.75;exitY=1;exitDx=0;exitDy=0;entryX=0.75;entryY=0;entryDx=0;entryDy=0;" edge="1" parent="1" source="ao8X_oTIbGiWLXNSHfPo-14" target="ao8X_oTIbGiWLXNSHfPo-22">
          <mxGeometry relative="1" as="geometry" />
        </mxCell>
        <mxCell id="ao8X_oTIbGiWLXNSHfPo-33" value="GND" style="edgeLabel;html=1;align=center;verticalAlign=middle;resizable=0;points=[];" vertex="1" connectable="0" parent="ao8X_oTIbGiWLXNSHfPo-31">
          <mxGeometry x="-0.454" y="-2" relative="1" as="geometry">
            <mxPoint as="offset" />
          </mxGeometry>
        </mxCell>
        <mxCell id="ao8X_oTIbGiWLXNSHfPo-14" value="DRV 8841" style="rounded=1;whiteSpace=wrap;html=1;" vertex="1" parent="1">
          <mxGeometry x="590" y="323" width="150" height="110" as="geometry" />
        </mxCell>
        <mxCell id="ao8X_oTIbGiWLXNSHfPo-20" value="3.3V&lt;br&gt;P3.7&lt;br&gt;P3.6" style="text;html=1;align=center;verticalAlign=middle;resizable=0;points=[];autosize=1;strokeColor=none;fillColor=none;" vertex="1" parent="1">
          <mxGeometry x="495" y="320" width="50" height="60" as="geometry" />
        </mxCell>
        <mxCell id="ao8X_oTIbGiWLXNSHfPo-21" value="VCC&lt;br&gt;AIN1&lt;br&gt;AIN2" style="text;html=1;align=center;verticalAlign=middle;resizable=0;points=[];autosize=1;strokeColor=none;fillColor=none;" vertex="1" parent="1">
          <mxGeometry x="589" y="320" width="50" height="60" as="geometry" />
        </mxCell>
        <mxCell id="ao8X_oTIbGiWLXNSHfPo-22" value="DC Motor" style="rounded=1;whiteSpace=wrap;html=1;" vertex="1" parent="1">
          <mxGeometry x="605" y="520" width="120" height="60" as="geometry" />
        </mxCell>
        <mxCell id="ao8X_oTIbGiWLXNSHfPo-25" value="TB2.1 P2.1" style="text;html=1;align=center;verticalAlign=middle;resizable=0;points=[];autosize=1;strokeColor=none;fillColor=none;" vertex="1" parent="1">
          <mxGeometry x="465" y="370" width="80" height="30" as="geometry" />
        </mxCell>
        <mxCell id="ao8X_oTIbGiWLXNSHfPo-34" value="A02 A01" style="text;html=1;align=center;verticalAlign=middle;resizable=0;points=[];autosize=1;strokeColor=none;fillColor=none;" vertex="1" parent="1">
          <mxGeometry x="650" y="410" width="70" height="30" as="geometry" />
        </mxCell>
        <mxCell id="ao8X_oTIbGiWLXNSHfPo-38" value="" style="endArrow=classic;html=1;rounded=0;" edge="1" parent="1">
          <mxGeometry width="50" height="50" relative="1" as="geometry">
            <mxPoint x="335" y="370" as="sourcePoint" />
            <mxPoint x="415" y="370" as="targetPoint" />
          </mxGeometry>
        </mxCell>
        <mxCell id="ao8X_oTIbGiWLXNSHfPo-39" value="USB Signal" style="text;html=1;align=center;verticalAlign=middle;resizable=0;points=[];autosize=1;strokeColor=none;fillColor=none;" vertex="1" parent="1">
          <mxGeometry x="325" y="348" width="80" height="30" as="geometry" />
        </mxCell>
      </root>
    </mxGraphModel>
  </diagram>
  <diagram id="pnrBO_rM5OtxfIUb8BTS" name="Page-2">
    <mxGraphModel dx="1075" dy="445" grid="0" gridSize="10" guides="1" tooltips="1" connect="1" arrows="1" fold="1" page="1" pageScale="1" pageWidth="1200" pageHeight="1920" math="0" shadow="0">
      <root>
        <mxCell id="0" />
        <mxCell id="1" parent="0" />
        <mxCell id="9yDonsjoKf5e-L6GH7CM-1" value="&lt;b style=&quot;font-weight:normal;&quot; id=&quot;docs-internal-guid-670fd51b-7fff-8b7e-3d5d-d27da1fc0b06&quot;&gt;&lt;span style=&quot;font-size: 11pt; font-family: Cambria, serif; color: rgb(0, 0, 0); background-color: transparent; font-weight: 400; font-style: italic; font-variant: normal; text-decoration: none; vertical-align: baseline;&quot;&gt;&lt;span style=&quot;border:none;display:inline-block;overflow:hidden;width:451px;height:338px;&quot;&gt;&lt;img src=&quot;https://lh7-us.googleusercontent.com/T2H8nuZT2n0-Kwvd-NkAB4XEnYOxazIT30_Rs5sGhlpAri90AYjkePkILaFBYM0sdeB4rfQUrguoiq8H6dUsPHa2L_tsIi3i_rZ-qwVRANK-F8wNx2S0XeQSjRfEx27o44CT4kO4S1JL_xUMYk6spR8&quot; width=&quot;451&quot; height=&quot;338&quot; style=&quot;margin-left:0px;margin-top:0px;&quot;&gt;&lt;/span&gt;&lt;/span&gt;&lt;/b&gt;" style="text;whiteSpace=wrap;html=1;" vertex="1" parent="1">
          <mxGeometry x="164" y="184.99998779296874" width="479" height="364" as="geometry" />
        </mxCell>
        <mxCell id="9yDonsjoKf5e-L6GH7CM-11" value="Motor Driver" style="text;html=1;strokeColor=none;fillColor=none;align=center;verticalAlign=middle;whiteSpace=wrap;rounded=0;" vertex="1" parent="1">
          <mxGeometry x="213" y="368" width="60" height="30" as="geometry" />
        </mxCell>
        <mxCell id="9yDonsjoKf5e-L6GH7CM-13" value="120VAC to 5VDC" style="text;html=1;strokeColor=none;fillColor=none;align=center;verticalAlign=middle;whiteSpace=wrap;rounded=0;" vertex="1" parent="1">
          <mxGeometry x="232" y="240" width="60" height="30" as="geometry" />
        </mxCell>
        <mxCell id="9yDonsjoKf5e-L6GH7CM-14" value="DC Motor" style="text;html=1;strokeColor=none;fillColor=none;align=center;verticalAlign=middle;whiteSpace=wrap;rounded=0;" vertex="1" parent="1">
          <mxGeometry x="546" y="234" width="60" height="30" as="geometry" />
        </mxCell>
        <mxCell id="9yDonsjoKf5e-L6GH7CM-15" value="MSP430" style="text;html=1;strokeColor=none;fillColor=none;align=center;verticalAlign=middle;whiteSpace=wrap;rounded=0;" vertex="1" parent="1">
          <mxGeometry x="417" y="410" width="60" height="30" as="geometry" />
        </mxCell>
        <mxCell id="9yDonsjoKf5e-L6GH7CM-16" value="5V USB" style="text;html=1;strokeColor=none;fillColor=none;align=center;verticalAlign=middle;whiteSpace=wrap;rounded=0;" vertex="1" parent="1">
          <mxGeometry x="250" y="482" width="60" height="30" as="geometry" />
        </mxCell>
      </root>
    </mxGraphModel>
  </diagram>
</mxfile>
